<?xml version="1.0" encoding="UTF-8"?>
<svg width="101px" height="133px" viewBox="0 0 101 133" version="1.1" xmlns="http://www.w3.org/2000/svg" xmlns:xlink="http://www.w3.org/1999/xlink">
    <title>Google-Noto-Emoji-Food-Drink-32390-egg</title>
    <defs>
        <radialGradient cx="30.9355811%" cy="28.2489526%" fx="30.9355811%" fy="28.2489526%" r="87.2497503%" gradientTransform="translate(0.309356,0.282490),scale(1.000000,0.756977),translate(-0.309356,-0.282490)" id="radialGradient-1">
            <stop stop-color="#FFDCB5" offset="0%"></stop>
            <stop stop-color="#F3CA9C" offset="24.14%"></stop>
            <stop stop-color="#E4B37D" offset="60.22%"></stop>
            <stop stop-color="#DEAA71" offset="80.3%"></stop>
            <stop stop-color="#E0AB7B" offset="99.01%"></stop>
        </radialGradient>
    </defs>
    <g id="Page-1" stroke="none" stroke-width="1" fill="none" fill-rule="evenodd">
        <g id="Google-Noto-Emoji-Food-Drink-32390-egg" transform="translate(0.913731, 0.590000)" fill-rule="nonzero">
            <g id="Group">
                <path d="M99.7200421,67.5020019 C97.8923095,42.7824822 81.1832229,-4.00827821e-15 49.9763806,-4.00827821e-15 C21.3644674,-4.00827821e-15 1.81224124,42.7937645 0.232719218,67.4907196 C-2.93760713,117.13284 26.9379237,132.104458 49.9763806,132.104458 C72.428158,132.115735 103.262684,115.666141 99.7200421,67.5020019 Z" id="Path" fill="url(#radialGradient-1)"></path>
                <g opacity="0.2" fill="#424242" id="Shape">
                    <path d="M49.9763806,3.38469005 C65.8731416,3.38469005 76.6928674,15.8065025 82.9658263,26.2200656 C91.6306329,40.593716 95.5568733,57.0997211 96.335352,67.7389302 C97.7907688,87.4716732 93.2440018,103.616645 83.2027546,114.425088 C74.8876994,123.383235 62.4546046,128.731045 49.9650983,128.731045 C36.9904532,128.731045 24.8732628,123.755551 16.7387244,115.079462 C6.69747721,104.372559 2.27481555,88.4306687 3.59484467,67.7163656 C4.40717028,55.0124956 9.99190886,38.7547011 17.8218252,26.2877594 C23.2147647,17.7357759 34.5309117,3.38469005 49.9763806,3.38469005 M49.9763806,-4.00827821e-15 C21.3644674,-4.00827821e-15 1.81224124,42.7937645 0.232719218,67.4907196 C-2.93760713,117.13284 26.9379237,132.104453 49.9763806,132.104453 C72.428158,132.104453 103.262684,115.666141 99.7200421,67.4907196 C97.8923095,42.7824822 81.1832229,-4.00827821e-15 49.9763806,-4.00827821e-15 L49.9763806,-4.00827821e-15 Z"></path>
                </g>
            </g>
        </g>
    </g>
</svg>