<?xml version="1.0" standalone="no"?>
<!DOCTYPE svg PUBLIC "-//W3C//DTD SVG 20010904//EN"
 "http://www.w3.org/TR/2001/REC-SVG-20010904/DTD/svg10.dtd">
<svg version="1.0" xmlns="http://www.w3.org/2000/svg"
 width="1064.000000pt" height="1064.000000pt" viewBox="0 0 1064.000000 1064.000000"
 preserveAspectRatio="xMidYMid meet">
<metadata>
Created by potrace 1.14, written by Peter Selinger 2001-2017
</metadata>
<g transform="translate(0.000000,1064.000000) scale(0.100000,-0.100000)"
fill="#000000" stroke="none">
<path d="M5317 10594 c-1 -1 -56 -4 -122 -8 -66 -3 -131 -8 -145 -11 -14 -2
-36 -7 -50 -10 -14 -2 -41 -7 -60 -10 -172 -27 -410 -104 -608 -196 -46 -22
-88 -39 -93 -39 -5 0 -9 -4 -9 -8 0 -4 -12 -13 -27 -19 -65 -28 -313 -181
-375 -232 -7 -6 -44 -34 -83 -63 -66 -49 -93 -71 -119 -93 -6 -5 -45 -39 -86
-75 -124 -109 -348 -337 -457 -466 -56 -67 -143 -174 -170 -210 -12 -16 -29
-38 -38 -49 -9 -11 -45 -60 -81 -110 -35 -49 -71 -98 -79 -108 -8 -9 -15 -20
-15 -23 0 -5 -40 -64 -50 -74 -12 -12 -110 -172 -110 -180 0 -5 -4 -10 -8 -12
-9 -4 -72 -105 -72 -116 0 -5 -9 -18 -20 -30 -12 -12 -18 -22 -14 -22 3 0 2
-6 -4 -12 -11 -14 -47 -78 -129 -228 -14 -25 -29 -49 -33 -55 -5 -5 -8 -12 -8
-15 1 -3 -10 -25 -23 -50 -13 -25 -23 -47 -24 -50 0 -3 -7 -16 -15 -30 -20
-35 -80 -161 -87 -182 -3 -10 -9 -18 -14 -18 -5 0 -9 -7 -9 -15 0 -8 -4 -23
-10 -33 -21 -37 -94 -207 -89 -207 1 0 -7 -18 -18 -40 -34 -68 -138 -335 -218
-565 -38 -109 -118 -366 -141 -452 -1 -5 -2 -9 -3 -10 -2 -2 -4 -14 -7 -28 -2
-14 -9 -36 -14 -50 -5 -14 -11 -36 -14 -50 -2 -14 -7 -32 -10 -40 -3 -8 -8
-26 -10 -40 -3 -14 -10 -45 -17 -70 -6 -25 -13 -56 -16 -70 -8 -40 -9 -44 -16
-65 -3 -11 -8 -37 -11 -57 -3 -21 -11 -59 -17 -85 -6 -27 -13 -61 -16 -78 -5
-34 -8 -52 -21 -116 -5 -25 -8 -57 -8 -72 1 -15 -1 -27 -4 -27 -3 0 -7 -15 -8
-32 -3 -33 -4 -42 -16 -128 -6 -43 -13 -108 -21 -215 -24 -310 -24 -941 0
-1220 3 -27 7 -77 10 -110 3 -33 8 -76 10 -95 9 -66 15 -115 20 -155 2 -22 7
-57 11 -78 3 -20 7 -47 9 -60 4 -29 15 -96 21 -127 3 -14 7 -36 10 -50 7 -39
14 -73 20 -100 3 -14 7 -36 10 -50 4 -22 60 -250 68 -275 10 -35 29 -102 30
-110 4 -24 79 -239 117 -335 22 -58 41 -111 41 -117 1 -7 5 -13 9 -13 4 0 10
-11 13 -26 4 -14 31 -77 61 -140 30 -63 54 -115 53 -117 0 -1 13 -24 31 -51
17 -28 31 -53 31 -58 0 -4 16 -32 35 -63 20 -30 39 -63 42 -73 4 -9 11 -21 15
-27 5 -5 31 -45 58 -88 28 -43 55 -84 60 -90 5 -7 38 -50 72 -97 34 -47 66
-90 72 -96 6 -6 25 -28 41 -50 81 -103 355 -383 431 -440 21 -16 44 -34 49
-40 6 -5 33 -27 60 -49 28 -21 55 -45 62 -52 6 -8 14 -14 17 -13 4 0 30 -17
59 -38 69 -52 208 -141 282 -182 33 -18 68 -40 77 -48 10 -8 18 -12 18 -8 0 3
19 -6 42 -20 22 -14 47 -27 55 -28 7 -1 19 -8 25 -14 7 -7 15 -12 20 -12 4 0
39 -15 77 -34 38 -19 72 -31 75 -28 3 3 6 0 6 -6 0 -7 7 -12 16 -12 8 0 40
-11 70 -25 30 -14 59 -25 65 -25 6 0 23 -6 37 -14 70 -37 440 -145 592 -172
14 -3 57 -11 95 -19 39 -8 93 -17 120 -20 28 -3 59 -8 70 -10 11 -2 47 -7 80
-10 33 -4 76 -8 95 -11 191 -24 595 -23 805 1 22 3 60 7 85 9 25 3 59 8 75 11
37 6 77 13 130 21 22 3 69 12 105 20 36 9 74 17 85 19 11 2 29 6 40 8 11 3 43
11 70 17 28 7 109 31 180 53 72 22 132 41 135 42 3 1 22 9 44 18 21 9 46 17
55 17 9 0 22 5 29 12 7 7 12 8 12 2 0 -5 4 -3 8 3 4 7 17 14 27 16 19 4 38 12
145 59 94 42 326 160 354 181 6 4 54 33 106 64 52 31 111 69 131 84 20 16 42
29 48 29 6 0 11 4 11 8 0 4 13 15 28 24 31 18 215 163 271 212 64 57 174 161
207 196 113 120 161 171 174 187 42 49 78 93 102 124 14 19 45 57 67 86 23 29
41 57 41 62 0 5 4 11 9 13 12 4 150 216 213 328 87 155 199 386 248 515 17 44
35 89 40 100 5 11 21 56 35 100 14 44 28 87 32 95 3 8 7 17 8 20 0 3 11 39 24
80 13 41 25 82 27 90 1 8 14 58 28 110 15 52 28 108 31 124 2 15 7 38 11 49 4
12 8 33 10 47 2 14 10 59 19 100 39 192 73 448 90 695 25 345 20 881 -11 1180
-3 28 -7 70 -9 95 -2 25 -4 45 -5 45 -1 0 -3 18 -5 40 -1 22 -4 40 -5 40 -1 0
-3 16 -5 36 -1 20 -6 54 -9 75 -3 21 -9 56 -12 78 -3 21 -7 48 -10 59 -2 12
-6 37 -9 57 -3 20 -8 47 -10 60 -3 14 -9 50 -15 80 -5 30 -11 65 -14 76 -12
56 -45 212 -50 234 -3 14 -10 45 -17 70 -6 25 -13 54 -15 65 -11 43 -13 50
-14 50 -2 0 -4 9 -13 55 -19 91 -194 662 -224 730 -3 8 -7 17 -7 20 -1 3 -6
19 -13 35 -6 17 -28 75 -49 130 -20 55 -43 114 -50 130 -7 17 -25 59 -39 95
-15 36 -38 89 -51 118 -13 29 -24 54 -24 56 0 2 -12 30 -27 62 -15 33 -28 61
-28 64 -1 3 -15 34 -33 69 -18 34 -32 69 -32 76 0 7 -3 15 -7 17 -5 2 -33 53
-63 113 -30 61 -57 112 -60 115 -3 3 -18 30 -34 60 -47 91 -77 143 -100 175
-11 17 -21 32 -20 35 1 6 -39 73 -93 157 -24 36 -43 69 -43 74 0 5 -4 9 -10 9
-5 0 -10 7 -10 15 0 8 -4 15 -9 15 -5 0 -16 15 -26 33 -9 17 -41 66 -71 107
-30 41 -64 90 -75 108 -12 17 -25 32 -30 32 -5 0 -9 5 -9 11 0 9 -43 65 -120
157 -11 13 -20 28 -20 33 0 6 -4 7 -10 4 -5 -3 -10 0 -10 9 0 8 -3 16 -7 18
-5 2 -42 41 -83 88 -81 93 -275 287 -361 362 -53 47 -62 54 -135 113 -20 17
-42 35 -48 40 -35 32 -258 183 -326 221 -19 10 -37 21 -40 24 -21 21 -204 112
-355 175 -155 65 -411 139 -555 160 -25 4 -56 8 -70 10 -68 11 -113 15 -195
21 -89 6 -215 10 -218 8z"/>
</g>
</svg>
