<svg width="31" height="31" viewBox="0 0 31 31" version="1.1" xmlns="http://www.w3.org/2000/svg" xmlns:xlink="http://www.w3.org/1999/xlink"><title>venmo-logo</title><g id="Page-1" stroke="none" stroke-width="1" fill="none" fill-rule="evenodd"><g id="venmo-logo" transform="translate(0.236000, 0.236000)" fill-rule="nonzero"><path d="M3.54659132,0 L26.4534777,0 C26.5113731,0 26.5692686,0.00147152879 26.627279,0.00429962319 C26.6851745,0.0070127544 26.7430699,0.0114273408 26.8009654,0.0171984928 C26.8586309,0.022728222 26.9162965,0.0297524728 26.9736401,0.0383402228 C27.0309607,0.0470544324 27.0883044,0.056780318 27.1451767,0.0681961625 C27.2021754,0.07950854 27.2587143,0.0922809501 27.3151382,0.106421422 C27.3713437,0.120446931 27.4273078,0.136047435 27.4828235,0.152901039 C27.5382358,0.169639679 27.5933032,0.187953314 27.6480371,0.207405085 C27.7027711,0.226856857 27.7567003,0.247665193 27.8106526,0.269933563 C27.8642484,0.292316895 27.9172809,0.3157234 27.9697501,0.340601434 C28.0222078,0.365364504 28.0740102,0.39148414 28.1250079,0.418741912 C28.1763505,0.44610315 28.2267848,0.474717488 28.2766443,0.504561931 C28.3261705,0.53441787 28.3754782,0.565515413 28.4236363,0.597739594 C28.4718059,0.629848812 28.5194121,0.663326092 28.5661217,0.697930011 C28.6127162,0.73253393 28.6582876,0.768264489 28.7032957,0.805006723 C28.7481889,0.841875417 28.7920703,0.879755788 28.835032,0.91865933 C28.8779938,0.957781302 28.9200703,0.997696521 28.9612386,1.03874987 C29.0020621,1.07979173 29.0421957,1.12185676 29.0812142,1.16483 C29.1201178,1.20779174 29.1581016,1.25177666 29.1949818,1.29668128 C29.2316205,1.34145944 29.2674661,1.38726078 29.301955,1.43395882 C29.3365589,1.48054191 29.3700247,1.52804469 29.4022604,1.57631774 C29.4344961,1.62448731 29.4657086,1.6735651 29.4953231,1.72332116 C29.525294,1.77319219 29.5539083,1.82362654 29.5812696,1.87485414 C29.6086423,1.92595528 29.634647,1.97786116 29.6592951,2.03033035 C29.6841731,2.08279955 29.7078096,2.13583207 29.7298595,2.18931295 C29.7520244,2.24313871 29.7731776,2.29707944 29.7925029,2.35181341 C29.8120582,2.40654738 29.8304983,2.46161475 29.8472369,2.51713047 C29.8638606,2.57276116 29.8794726,2.62863327 29.8935901,2.68481578 C29.9077305,2.74112475 29.9203995,2.7977901 29.9315969,2.85466239 C29.9432427,2.91164964 29.9529571,2.96886682 29.9616713,3.02619896 C29.9700406,3.08376103 29.9772718,3.1413231 29.982698,3.19897713 C29.9885842,3.25675763 29.9928838,3.31454963 29.9957119,3.37256005 C29.9985285,3.43057047 30,3.4885809 30,3.54659132 L30,26.4534777 C30,26.5113731 29.9985285,26.5692686 29.9957119,26.627279 C29.9928838,26.6851745 29.9885842,26.7430699 29.982698,26.8009654 C29.9772718,26.8586424 29.9701556,26.9162965 29.9616713,26.9736401 C29.953072,27.0309607 29.9432312,27.0883044 29.9315969,27.1451767 C29.9203995,27.2021754 29.907742,27.2587143 29.8935901,27.3151382 C29.8794611,27.3713437 29.8638606,27.4273078 29.8472369,27.482835 C29.8304983,27.5382358 29.8119547,27.5933032 29.7925029,27.6480371 C29.7731661,27.7027711 29.7521279,27.7567003 29.7298595,27.8106526 C29.7078096,27.8642484 29.6841731,27.9172809 29.6592951,27.9697501 C29.6345435,28.0222193 29.6086423,28.0740102 29.5812696,28.1250079 C29.5539083,28.1763505 29.5253055,28.2267848 29.4953231,28.2766443 C29.4655936,28.3261705 29.4344961,28.3754782 29.4022604,28.4236478 C29.3700247,28.4718059 29.3365589,28.5194121 29.301955,28.5661217 C29.2673511,28.6127162 29.2316205,28.6582876 29.1949818,28.7032957 C29.1581246,28.7481889 29.1201178,28.7920703 29.0812142,28.835032 C29.0421957,28.8780053 29.002177,28.9200703 28.9612386,28.9612386 C28.9200703,29.0020621 28.8780053,29.0421957 28.835032,29.0812142 C28.7920703,29.1201178 28.7481889,29.1581016 28.7032957,29.1949818 C28.6584026,29.2316205 28.6127162,29.2674661 28.5661217,29.301955 C28.5194236,29.3365589 28.4718173,29.3700362 28.4236363,29.4022604 C28.3754782,29.4344961 28.326274,29.4657086 28.2766443,29.4953346 C28.2268883,29.525294 28.176339,29.5539083 28.1250079,29.5812696 C28.0740102,29.6086423 28.0222193,29.634647 27.9697501,29.6592951 C27.9172924,29.6841731 27.8641334,29.7078096 27.8106526,29.7298595 C27.7567118,29.7520359 27.7028861,29.7731776 27.6480371,29.7925029 C27.5933032,29.8120697 27.5382358,29.8304983 27.4828235,29.8472369 C27.4273078,29.8638606 27.3713437,29.8794726 27.3151382,29.8936016 C27.2587143,29.9077305 27.2021754,29.9203995 27.1451767,29.9315969 C27.0883044,29.9432427 27.0309607,29.9529686 26.9736401,29.9616713 C26.916193,29.9700406 26.858516,29.9772718 26.8009654,29.982698 C26.7430699,29.9885842 26.6851745,29.9928838 26.627279,29.9957119 C26.5692686,29.9985285 26.5113731,30 26.4534777,30 L3.54659132,30 C3.4885809,30 3.43057047,29.9985285 3.37256005,29.9957119 C3.31454963,29.9928838 3.25676913,29.9885842 3.19897713,29.982698 C3.14119664,29.9772718 3.08364607,29.9701441 3.02619896,29.9616713 C2.96887832,29.9530835 2.91164964,29.9432312 2.85466239,29.9315969 C2.7977786,29.9203995 2.74112475,29.907742 2.68481578,29.8936016 C2.62861028,29.8794726 2.57276116,29.8638606 2.51711898,29.8472369 C2.46160325,29.8304983 2.40642092,29.8119547 2.35180191,29.7925029 C2.2971829,29.7731661 2.24313871,29.7521279 2.18930145,29.7298595 C2.13570561,29.7078096 2.08277656,29.6841731 2.03031886,29.6592951 C1.97784966,29.6345435 1.92594378,29.6086423 1.87484264,29.5812696 C1.82361505,29.5539083 1.77329566,29.5253055 1.72330967,29.4953346 C1.67366856,29.4655936 1.62447582,29.4344961 1.57630624,29.4022604 C1.5280217,29.3700362 1.48041545,29.3365589 1.43393583,29.301955 C1.38723778,29.2673511 1.34156291,29.2316205 1.29666978,29.1949818 C1.25177666,29.1581246 1.20779174,29.1201178 1.16481851,29.0812142 C1.12184527,29.0421957 1.07978024,29.002177 1.03873838,28.9612386 C0.997799988,28.9200703 0.957781302,28.8780168 0.918647834,28.835032 C0.879744291,28.7920703 0.841863921,28.7481889 0.804995227,28.7032957 C0.768252993,28.6584026 0.732407471,28.6127162 0.697918515,28.5661217 C0.663314596,28.5194236 0.629848812,28.4718173 0.597728098,28.4236478 C0.565503916,28.3754782 0.534291411,28.3262855 0.504550435,28.2766443 C0.474694495,28.2268883 0.446091654,28.176339 0.418730416,28.1250079 C0.391472644,28.0740102 0.365249541,28.0222308 0.340589937,27.9697501 C0.315711904,27.9172924 0.292305399,27.8641334 0.269922066,27.8106526 C0.247757164,27.7567118 0.226833864,27.7028861 0.207393589,27.6480371 C0.187826855,27.5933032 0.169628182,27.5382358 0.152889542,27.482835 C0.136047435,27.4273078 0.120435435,27.3713437 0.106421422,27.3151382 C0.0922924464,27.2587143 0.07950854,27.2021754 0.0681961625,27.1451767 C0.056780318,27.0883044 0.0470544324,27.0309607 0.0383402228,26.9736401 C0.0298674359,26.916193 0.0227397184,26.858516 0.0171984928,26.8009654 C0.0113123776,26.7430699 0.0070127544,26.6851745 0.00429962319,26.627279 C0.00147152879,26.5692686 0,26.5113731 0,26.4534777 L0,3.54648786 C0,3.48847743 0.00147152879,3.43046701 0.00429962319,3.37245658 C0.0070127544,3.31444616 0.0114273408,3.25666566 0.0171984928,3.19887367 C0.022728222,3.14109317 0.0297524728,3.0835426 0.0383402228,3.02609549 C0.0470544324,2.96876335 0.056780318,2.91154617 0.0681961625,2.85455892 C0.07950854,2.79767514 0.0922809501,2.74102128 0.106421422,2.68471231 C0.120446931,2.6285183 0.136047435,2.57265769 0.152889542,2.51702701 C0.169628182,2.46149979 0.187941818,2.40643242 0.207393589,2.35170994 C0.22684536,2.29709093 0.247653697,2.24303524 0.269922066,2.18920948 C0.292305399,2.13561364 0.315711904,2.08268459 0.340589937,2.03022689 C0.365353008,1.97775769 0.391472644,1.92585181 0.418730416,1.87473918 C0.446091654,1.82351158 0.474705991,1.77319219 0.504550435,1.7232177 C0.534406374,1.67357659 0.565503916,1.62438385 0.597728098,1.57621427 C0.629837316,1.52792973 0.663314596,1.48043844 0.697918515,1.43385536 C0.732522434,1.38714581 0.768252993,1.34147094 0.804995227,1.29657781 C0.841863921,1.25168469 0.879744291,1.20769977 0.918647834,1.16472654 C0.957769806,1.1217533 0.997685025,1.07968827 1.03873838,1.03864641 C1.07978024,0.997708017 1.12184527,0.957689332 1.16481851,0.918555863 C1.20778025,0.879652321 1.25176516,0.841771951 1.29666978,0.804903257 C1.34144795,0.768161022 1.38724928,0.7323155 1.43393583,0.697826544 C1.48041545,0.663222625 1.5280217,0.629756841 1.57630624,0.597636127 C1.62447582,0.565411946 1.6735536,0.53419944 1.72330967,0.504458464 C1.7731807,0.474602524 1.82361505,0.445999683 1.87484264,0.418638445 C1.92594378,0.391380673 1.97784966,0.36515757 2.03031886,0.340497967 C2.08277656,0.315619933 2.13582057,0.292213428 2.18930145,0.269830096 C2.24313871,0.247665193 2.29706794,0.226741893 2.35180191,0.207301619 C2.40642092,0.187734884 2.46160325,0.169536212 2.51711898,0.152797572 C2.57276116,0.135955465 2.62861028,0.120343464 2.68481578,0.106329452 C2.74112475,0.0922004759 2.7977786,0.0794165695 2.85466239,0.0681041919 C2.91164964,0.0566883474 2.96887832,0.0469624618 3.02619896,0.0382482523 C3.08376103,0.0297754654 3.1413231,0.0226477478 3.19897713,0.0171065222 C3.25675763,0.011220407 3.31454963,0.00692078385 3.37256005,0.00420765264 C3.43058197,0.00135656561 3.4885809,0 3.54659132,0 Z" id="Path" fill="#3395C3"/><path d="M22.3928399,6.10454522 C23.0381858,7.16850652 23.3278815,8.26558872 23.3278815,9.65102158 C23.3278815,14.0695742 19.5562613,19.8079617 16.4952285,23.83695 L9.50538622,23.83695 L6.70238828,7.07260423 L12.8249023,6.49128138 L14.3140319,18.4194708 C15.6977748,16.1627664 17.408542,12.6161636 17.408542,10.1999018 C17.408542,8.87598576 17.182053,7.97608842 16.8272191,7.23475981 L22.3928399,6.10454522 Z" id="Path" fill="#FFF"/></g></g></svg>